<svg width="1024" height="1024" xmlns="http://www.w3.org/2000/svg" t="1753058719560" class="icon" version="1.1" p-id="4464">
 <g>
  <title>Layer 1</title>
  <path d="m511.99754,0a350.50496,350.50496 0 0 0 -246.08768,597.62688l246.08768,247.58272l246.14912,-247.58272a350.50496,350.50496 0 0 0 -246.14912,-597.56544l0,-0.06144zm0,505.63072a155.12576,155.12576 0 0 1 -154.73664,-155.51488l0,-0.13312a155.06432,155.06432 0 0 1 154.624,-155.51488l0.06144,0a155.12576,155.12576 0 0 1 154.78784,155.51488l0,0.13312a155.06432,155.06432 0 0 1 -154.54208,155.45344l-0.19456,0l0,0.06144zm-154.73664,453.35552c0,35.91168 69.2736,65.01376 154.73664,65.01376s154.73664,-29.11232 154.73664,-65.01376s-69.28384,-65.01376 -154.73664,-65.01376s-154.73664,29.10208 -154.73664,65.01376z" fill="#d81e06" p-id="4465" id="svg_1"/>
  <ellipse fill="#d81e06" cx="550.00066" cy="389.01407" id="svg_2" rx="202.00315" ry="205.0032"/>
  <ellipse fill="#d81e06" cx="510.00003" cy="349.01345" id="svg_4" rx="202.00315" ry="205.0032"/>
  <g id="svg_3">
   <g id="svg_8">
    <title fill="#529D94">Layer 1</title>
    <path id="svg_7" p-id="4465" fill="#529D94" d="m511.9998,0a350.50496,350.50496 0 0 0 -246.08768,597.62688l246.08768,247.58272l246.14912,-247.58272a350.50496,350.50496 0 0 0 -246.14912,-597.56544l0,-0.06144zm0,505.63072a155.12576,155.12576 0 0 1 -154.73664,-155.51488l0,-0.13312a155.06432,155.06432 0 0 1 154.624,-155.51488l0.06144,0a155.12576,155.12576 0 0 1 154.78784,155.51488l0,0.13312a155.06432,155.06432 0 0 1 -154.54208,155.45344l-0.19456,0l0,0.06144zm-154.73664,453.35552c0,35.91168 69.2736,65.01376 154.73664,65.01376s154.73664,-29.11232 154.73664,-65.01376s-69.28384,-65.01376 -154.73664,-65.01376s-154.73664,29.10208 -154.73664,65.01376z"/>
    <ellipse ry="205.0032" rx="202.00315" id="svg_6" cy="389.01407" cx="550.00292" fill="#529D94"/>
    <ellipse ry="205.0032" rx="202.00315" id="svg_5" cy="349.01345" cx="510.00229" fill="#529D94"/>
   </g>
  </g>
  <g id="svg_9" stroke="null">
   <path id="svg_10" d="m512.00002,351.99991m-270.79986,0a270.79986,270.79986 0 1 0 541.59972,0a270.79986,270.79986 0 1 0 -541.59972,0z" fill="#DAF9F4" p-id="23439" data-spm-anchor-id="a313x.search_index.0.i20.140a3a811I5yXo" stroke="null"/>
   <path id="svg_11" d="m376.60009,269.25551m22.56665,0l233.18877,0q22.56665,0 22.56665,22.56665l0,203.09989q0,22.56665 -22.56665,22.56665l-233.18877,0q-22.56665,0 -22.56665,-22.56665l0,-203.09989q0,-22.56665 22.56665,-22.56665z" fill="#09D3B6" p-id="23440" data-spm-anchor-id="a313x.search_index.0.i17.140a3a811I5yXo" stroke="null"/>
   <path id="svg_12" d="m321.49232,295.04167l179.25446,-118.89618a22.56665,22.56665 0 0 1 24.9512,0l179.26198,118.90371a7.52222,7.52222 0 0 1 -4.15979,13.78823l-375.15559,0a7.52222,7.52222 0 0 1 -4.15226,-13.79575l0,-0.00001z" fill="#09D3B6" p-id="23441" data-spm-anchor-id="a313x.search_index.0.i18.140a3a811I5yXo" stroke="null"/>
   <path id="svg_13" d="m429.25562,306.8666m22.56665,0l30.08887,0q22.56665,0 22.56665,22.56665l0,30.08887q0,22.56665 -22.56665,22.56665l-30.08887,0q-22.56665,0 -22.56665,-22.56665l0,-30.08887q0,-22.56665 22.56665,-22.56665z" fill="#A5ECE2" p-id="23442" stroke="null"/>
   <path id="svg_14" d="m429.25562,404.65544m22.56665,0l30.08887,0q22.56665,0 22.56665,22.56665l0,30.08887q0,22.56665 -22.56665,22.56665l-30.08887,0q-22.56665,0 -22.56665,-22.56665l0,-30.08887q0,-22.56665 22.56665,-22.56665z" fill="#A5ECE2" p-id="23443" stroke="null"/>
   <path id="svg_15" d="m527.04446,404.65544m22.56665,0l30.08887,0q22.56665,0 22.56665,22.56665l0,30.08887q0,22.56665 -22.56665,22.56665l-30.08887,0q-22.56665,0 -22.56665,-22.56665l0,-30.08887q0,-22.56665 22.56665,-22.56665z" fill="#A5ECE2" p-id="23444" stroke="null"/>
   <path id="svg_16" d="m569.64278,288.75259m15.95703,15.95703l21.27605,21.27605q15.95703,15.95703 0,31.91407l-21.27605,21.27605q-15.95703,15.95703 -31.91407,0l-21.27605,-21.27605q-15.95703,-15.95703 0,-31.91407l21.27605,-21.27605q15.95703,-15.95703 31.91407,0z" fill="#50DED2" p-id="23445" data-spm-anchor-id="a313x.search_index.0.i19.140a3a811I5yXo" stroke="null"/>
  </g>
 </g>

</svg>