<?xml version="1.0" standalone="no"?><!DOCTYPE svg PUBLIC "-//W3C//DTD SVG 1.1//EN" "http://www.w3.org/Graphics/SVG/1.1/DTD/svg11.dtd"><svg t="1753058719560" class="icon" viewBox="0 0 1024 1024" version="1.1" xmlns="http://www.w3.org/2000/svg" p-id="4464" xmlns:xlink="http://www.w3.org/1999/xlink" width="200" height="200"><path d="M511.997542 0A350.50496 350.50496 0 0 0 265.909862 597.62688L511.997542 845.2096l246.14912-247.58272A350.50496 350.50496 0 0 0 511.997542 0.06144z m0 505.63072a155.12576 155.12576 0 0 1-154.73664-155.51488v-0.13312a155.06432 155.06432 0 0 1 154.624-155.51488h0.06144a155.12576 155.12576 0 0 1 154.78784 155.51488v0.13312a155.06432 155.06432 0 0 1-154.54208 155.45344h-0.19456zM357.260902 958.98624c0 35.91168 69.2736 65.01376 154.73664 65.01376s154.73664-29.11232 154.73664-65.01376-69.28384-65.01376-154.73664-65.01376-154.73664 29.10208-154.73664 65.01376z" fill="#d81e06" p-id="4465"></path></svg>